<?xml version="1.0" encoding="UTF-8"?>
<svg xmlns="http://www.w3.org/2000/svg" xmlns:xlink="http://www.w3.org/1999/xlink" width="30px" height="30px" viewBox="0 0 30 30" version="1.1">
<g id="surface1">
<path style=" stroke:none;fill-rule:evenodd;fill:rgb(30.588235%,18.431373%,85.490196%);fill-opacity:1;" d="M 22.324219 4.054688 C 21.757812 4.066406 21.1875 4.21875 20.664062 4.519531 C 18.988281 5.488281 18.40625 7.652344 19.375 9.328125 C 19.390625 9.355469 19.410156 9.382812 19.425781 9.410156 L 15.277344 13.261719 C 14.105469 12.390625 12.660156 11.875 11.09375 11.875 C 10.648438 11.875 10.214844 11.917969 9.792969 11.996094 L 8.503906 8.9375 C 9.539062 8.109375 9.851562 6.609375 9.167969 5.429688 C 8.417969 4.125 6.730469 3.675781 5.429688 4.425781 C 4.125 5.179688 3.675781 6.863281 4.425781 8.164062 C 4.972656 9.117188 6.023438 9.613281 7.054688 9.519531 L 8.292969 12.460938 C 5.808594 13.546875 4.0625 16.027344 4.0625 18.90625 C 4.0625 21.097656 5.074219 23.058594 6.648438 24.347656 C 6.742188 24.480469 6.875 24.582031 7.027344 24.632812 C 8.175781 25.453125 9.578125 25.9375 11.09375 25.9375 C 12.660156 25.9375 14.109375 25.421875 15.277344 24.550781 C 15.34375 24.511719 15.40625 24.464844 15.457031 24.410156 C 16.144531 23.867188 16.726562 23.195312 17.171875 22.433594 L 20.46875 23.183594 C 20.464844 23.65625 20.582031 24.136719 20.832031 24.570312 C 21.582031 25.875 23.269531 26.324219 24.570312 25.574219 C 25.875 24.820312 26.324219 23.136719 25.574219 21.835938 C 24.824219 20.53125 23.136719 20.082031 21.835938 20.832031 C 21.457031 21.050781 21.152344 21.347656 20.929688 21.6875 L 17.8125 20.976562 C 18.015625 20.320312 18.125 19.625 18.125 18.90625 C 18.125 18.617188 18.105469 18.332031 18.070312 18.050781 L 20.832031 17.5625 C 21.585938 18.863281 23.269531 19.3125 24.570312 18.5625 C 25.875 17.8125 26.324219 16.125 25.574219 14.824219 C 24.820312 13.523438 23.136719 13.070312 21.835938 13.820312 C 21.011719 14.296875 20.527344 15.148438 20.476562 16.039062 L 17.710938 16.527344 C 17.417969 15.714844 16.976562 14.972656 16.421875 14.328125 L 20.523438 10.523438 C 21.597656 11.210938 23.007812 11.292969 24.179688 10.617188 C 25.855469 9.648438 26.4375 7.484375 25.46875 5.808594 C 24.804688 4.65625 23.574219 4.023438 22.324219 4.054688 Z M 22.371094 5.609375 C 23.066406 5.589844 23.742188 5.941406 24.117188 6.589844 C 24.660156 7.535156 24.34375 8.71875 23.398438 9.261719 C 22.457031 9.808594 21.273438 9.492188 20.726562 8.546875 C 20.183594 7.601562 20.5 6.417969 21.445312 5.875 C 21.738281 5.703125 22.054688 5.617188 22.371094 5.609375 Z M 6.769531 5.617188 C 7.183594 5.605469 7.589844 5.816406 7.816406 6.210938 C 8.144531 6.78125 7.953125 7.484375 7.382812 7.816406 C 6.8125 8.144531 6.109375 7.953125 5.777344 7.382812 C 5.449219 6.8125 5.640625 6.109375 6.210938 5.78125 C 6.386719 5.679688 6.578125 5.625 6.769531 5.617188 Z M 11.09375 13.4375 C 14.125 13.4375 16.5625 15.875 16.5625 18.90625 C 16.5625 20.292969 16.050781 21.554688 15.207031 22.515625 C 14.730469 21.648438 13.984375 20.945312 13.089844 20.523438 C 13.777344 19.949219 14.21875 19.085938 14.21875 18.125 C 14.21875 16.410156 12.808594 15 11.09375 15 C 9.378906 15 7.96875 16.410156 7.96875 18.125 C 7.96875 19.085938 8.410156 19.949219 9.097656 20.523438 C 8.203125 20.949219 7.457031 21.648438 6.980469 22.515625 C 6.136719 21.554688 5.625 20.292969 5.625 18.90625 C 5.625 15.875 8.0625 13.4375 11.09375 13.4375 Z M 23.175781 15.015625 C 23.589844 15 23.996094 15.210938 24.222656 15.605469 C 24.550781 16.175781 24.359375 16.878906 23.789062 17.210938 C 23.21875 17.539062 22.515625 17.347656 22.183594 16.777344 C 21.855469 16.210938 22.046875 15.503906 22.617188 15.175781 C 22.792969 15.070312 22.984375 15.019531 23.175781 15.015625 Z M 11.09375 16.5625 C 11.964844 16.5625 12.65625 17.253906 12.65625 18.125 C 12.65625 18.996094 11.964844 19.6875 11.09375 19.6875 C 10.222656 19.6875 9.53125 18.996094 9.53125 18.125 C 9.53125 17.253906 10.222656 16.5625 11.09375 16.5625 Z M 11.09375 21.640625 C 12.398438 21.640625 13.507812 22.433594 13.976562 23.558594 C 13.140625 24.078125 12.152344 24.375 11.09375 24.375 C 10.035156 24.375 9.046875 24.078125 8.210938 23.558594 C 8.679688 22.433594 9.789062 21.640625 11.09375 21.640625 Z M 23.175781 22.023438 C 23.589844 22.011719 23.996094 22.222656 24.222656 22.617188 C 24.550781 23.1875 24.359375 23.890625 23.789062 24.222656 C 23.21875 24.550781 22.515625 24.359375 22.183594 23.789062 C 21.855469 23.21875 22.046875 22.515625 22.617188 22.183594 C 22.792969 22.082031 22.984375 22.03125 23.175781 22.023438 Z M 23.175781 22.023438 "/>
</g>
</svg>
