<?xml version="1.0" encoding="UTF-8"?>
<svg xmlns="http://www.w3.org/2000/svg" xmlns:xlink="http://www.w3.org/1999/xlink" width="30px" height="30px" viewBox="0 0 30 30" version="1.1">
<g id="surface1">
<path style=" stroke:none;fill-rule:nonzero;fill:rgb(30.588235%,18.431373%,85.490196%);fill-opacity:1;" d="M 24.023438 23.648438 C 23.742188 23.519531 23.410156 23.640625 23.285156 23.921875 C 22.417969 25.808594 20.910156 27.25 18.921875 28.101562 C 17.070312 28.890625 14.933594 29.09375 12.90625 28.671875 C 10.945312 28.265625 9.261719 27.316406 8.03125 25.9375 C 6.644531 24.382812 5.921875 22.394531 5.875 20.03125 C 5.871094 19.929688 5.871094 19.835938 5.871094 19.734375 C 5.871094 15.351562 7.808594 11.230469 11.179688 8.429688 C 11.417969 8.230469 11.449219 7.878906 11.253906 7.644531 C 11.058594 7.40625 10.707031 7.375 10.46875 7.570312 C 6.839844 10.585938 4.757812 15.019531 4.757812 19.734375 C 4.757812 19.839844 4.761719 19.941406 4.761719 20.050781 C 4.878906 26.015625 8.925781 28.980469 12.679688 29.761719 C 13.445312 29.921875 14.222656 30 15 30 C 16.503906 30 18 29.703125 19.359375 29.125 C 21.605469 28.164062 23.3125 26.527344 24.292969 24.386719 C 24.421875 24.105469 24.300781 23.777344 24.023438 23.648438 Z M 24.023438 23.648438 "/>
<path style=" stroke:none;fill-rule:nonzero;fill:rgb(30.588235%,18.431373%,85.490196%);fill-opacity:1;" d="M 18.414062 6.726562 C 18.925781 6.480469 19.28125 5.960938 19.28125 5.355469 C 19.28125 4.5625 18.671875 3.910156 17.898438 3.84375 C 19.164062 3.035156 20.324219 2.050781 21.3125 0.921875 C 21.457031 0.757812 21.492188 0.527344 21.402344 0.328125 C 21.3125 0.128906 21.113281 0 20.894531 0 L 9.105469 0 C 8.886719 0 8.6875 0.128906 8.597656 0.328125 C 8.507812 0.527344 8.542969 0.757812 8.6875 0.921875 C 9.675781 2.050781 10.832031 3.035156 12.101562 3.84375 C 11.328125 3.910156 10.71875 4.5625 10.71875 5.355469 C 10.71875 6.191406 11.398438 6.875 12.234375 6.875 L 16.542969 6.875 C 21.226562 9.464844 24.128906 14.382812 24.128906 19.734375 C 24.128906 19.832031 24.128906 19.929688 24.125 20.027344 C 24.113281 20.617188 24.058594 21.195312 23.960938 21.742188 C 23.90625 22.046875 24.105469 22.335938 24.40625 22.386719 C 24.441406 22.394531 24.472656 22.398438 24.507812 22.398438 C 24.769531 22.398438 25.003906 22.207031 25.054688 21.941406 C 25.164062 21.335938 25.226562 20.699219 25.238281 20.050781 C 25.238281 19.945312 25.242188 19.839844 25.242188 19.734375 C 25.242188 14.503906 22.664062 9.660156 18.414062 6.726562 Z M 10.410156 1.113281 L 19.589844 1.113281 C 18.421875 2.230469 17.0625 3.160156 15.601562 3.835938 L 14.398438 3.835938 C 12.9375 3.160156 11.578125 2.230469 10.410156 1.113281 Z M 17.765625 5.761719 L 12.234375 5.761719 C 12.011719 5.761719 11.828125 5.578125 11.828125 5.355469 C 11.828125 5.132812 12.011719 4.949219 12.234375 4.949219 L 17.765625 4.949219 C 17.988281 4.949219 18.171875 5.132812 18.171875 5.355469 C 18.171875 5.578125 17.988281 5.761719 17.765625 5.761719 Z M 17.765625 5.761719 "/>
<path style=" stroke:none;fill-rule:nonzero;fill:rgb(30.588235%,18.431373%,85.490196%);fill-opacity:1;" d="M 16.832031 17.324219 L 13.167969 17.324219 C 12.964844 17.324219 12.800781 17.15625 12.800781 16.953125 L 12.800781 15.460938 C 12.800781 15.257812 12.964844 15.09375 13.167969 15.09375 L 17.757812 15.09375 C 18.066406 15.09375 18.3125 14.84375 18.3125 14.535156 C 18.3125 14.230469 18.066406 13.980469 17.757812 13.980469 L 15.554688 13.980469 L 15.554688 12.625 C 15.554688 12.316406 15.308594 12.070312 15 12.070312 C 14.691406 12.070312 14.445312 12.316406 14.445312 12.625 L 14.445312 13.980469 L 13.167969 13.980469 C 12.351562 13.980469 11.6875 14.644531 11.6875 15.460938 L 11.6875 16.953125 C 11.6875 17.773438 12.351562 18.4375 13.167969 18.4375 L 16.832031 18.4375 C 17.035156 18.4375 17.199219 18.601562 17.199219 18.804688 L 17.199219 20.296875 C 17.199219 20.503906 17.035156 20.667969 16.832031 20.667969 L 12.242188 20.667969 C 11.933594 20.667969 11.6875 20.917969 11.6875 21.222656 C 11.6875 21.53125 11.933594 21.78125 12.242188 21.78125 L 14.445312 21.78125 L 14.445312 23.136719 C 14.445312 23.441406 14.691406 23.691406 15 23.691406 C 15.308594 23.691406 15.554688 23.441406 15.554688 23.136719 L 15.554688 21.78125 L 16.832031 21.78125 C 17.648438 21.78125 18.3125 21.117188 18.3125 20.296875 L 18.3125 18.804688 C 18.3125 17.988281 17.648438 17.324219 16.832031 17.324219 Z M 16.832031 17.324219 "/>
</g>
</svg>
