<?xml version="1.0" encoding="UTF-8"?>
<svg xmlns="http://www.w3.org/2000/svg" xmlns:xlink="http://www.w3.org/1999/xlink" width="30px" height="30px" viewBox="0 0 30 30" version="1.1">
<g id="surface1">
<path style="fill:none;stroke-width:4;stroke-linecap:round;stroke-linejoin:round;stroke:rgb(30.588235%,18.431373%,85.490196%);stroke-opacity:1;stroke-miterlimit:4;" d="M 38 10 L 10 38 " transform="matrix(0.625,0,0,0.625,0,0)"/>
<path style="fill:none;stroke-width:4;stroke-linecap:round;stroke-linejoin:round;stroke:rgb(30.588235%,18.431373%,85.490196%);stroke-opacity:1;stroke-miterlimit:4;" d="M 6 6 L 12 14 L 18 6 " transform="matrix(0.625,0,0,0.625,0,0)"/>
<path style="fill:none;stroke-width:4;stroke-linecap:round;stroke-linejoin:round;stroke:rgb(30.588235%,18.431373%,85.490196%);stroke-opacity:1;stroke-miterlimit:4;" d="M 5 14 L 19 14 " transform="matrix(0.625,0,0,0.625,0,0)"/>
<path style="fill:none;stroke-width:4;stroke-linecap:round;stroke-linejoin:round;stroke:rgb(30.588235%,18.431373%,85.490196%);stroke-opacity:1;stroke-miterlimit:4;" d="M 5 20 L 19 20 " transform="matrix(0.625,0,0,0.625,0,0)"/>
<path style="fill:none;stroke-width:4;stroke-linecap:round;stroke-linejoin:round;stroke:rgb(30.588235%,18.431373%,85.490196%);stroke-opacity:1;stroke-miterlimit:4;" d="M 12 14 L 12 26 " transform="matrix(0.625,0,0,0.625,0,0)"/>
<path style="fill:none;stroke-width:4;stroke-linecap:round;stroke-linejoin:round;stroke:rgb(30.588235%,18.431373%,85.490196%);stroke-opacity:1;stroke-miterlimit:4;" d="M 32.84375 26 L 42 26 L 42 42 L 22 42 L 22 36.15 " transform="matrix(0.625,0,0,0.625,0,0)"/>
</g>
</svg>
