<?xml version="1.0" encoding="UTF-8"?>
<svg xmlns="http://www.w3.org/2000/svg" xmlns:xlink="http://www.w3.org/1999/xlink" width="30px" height="30px" viewBox="0 0 30 30" version="1.1">
<g id="surface1">
<path style=" stroke:none;fill-rule:nonzero;fill:rgb(30.588235%,18.431373%,85.490196%);fill-opacity:1;" d="M 13.097656 15.964844 L 18.164062 18.808594 C 18.894531 17.957031 19.980469 17.429688 21.210938 17.429688 C 23.4375 17.429688 25.222656 19.246094 25.222656 21.472656 C 25.222656 23.699219 23.4375 25.488281 21.210938 25.488281 C 18.957031 25.488281 17.167969 23.699219 17.167969 21.472656 C 17.167969 21.238281 17.195312 20.976562 17.226562 20.742188 L 12.011719 17.839844 C 11.277344 18.574219 10.28125 19.011719 9.167969 19.011719 C 6.941406 19.011719 5.15625 17.226562 5.15625 15 C 5.15625 12.773438 6.941406 10.988281 9.167969 10.988281 C 10.3125 10.988281 11.367188 11.457031 12.097656 12.21875 L 17.285156 9.40625 C 17.226562 9.113281 17.167969 8.820312 17.167969 8.527344 C 17.167969 6.300781 18.953125 4.480469 21.210938 4.480469 C 23.4375 4.480469 25.222656 6.300781 25.222656 8.527344 C 25.222656 10.753906 23.4375 12.539062 21.210938 12.539062 C 20.066406 12.539062 19.042969 12.097656 18.308594 11.308594 L 13.09375 14.089844 C 13.152344 14.386719 13.183594 14.707031 13.183594 15 C 13.183594 15.324219 13.152344 15.675781 13.09375 15.964844 Z M 13.097656 15.964844 "/>
</g>
</svg>
