<svg width="56" height="56" viewBox="0 0 56 56" fill="none" xmlns="http://www.w3.org/2000/svg">
<g clip-path="url(#clip0_340_183513)">
<rect x="0.000732422" width="56" height="56" rx="11.6667" fill="#FF0000"/>
<path d="M43.5758 20.2977C43.2102 18.9232 42.1286 17.8388 40.7525 17.4672C38.2643 16.8003 28.281 16.8003 28.281 16.8003C28.281 16.8003 18.3029 16.8003 15.8096 17.4672C14.4386 17.8337 13.3569 18.9181 12.9863 20.2977C12.321 22.7923 12.321 28.0003 12.321 28.0003C12.321 28.0003 12.321 33.2083 12.9863 35.7028C13.3519 37.0774 14.4335 38.1617 15.8096 38.5334C18.3029 39.2003 28.281 39.2003 28.281 39.2003C28.281 39.2003 38.2643 39.2003 40.7525 38.5334C42.1235 38.1668 43.2051 37.0825 43.5758 35.7028C44.241 33.2083 44.241 28.0003 44.241 28.0003C44.241 28.0003 44.241 22.7923 43.5758 20.2977Z" fill="white"/>
<path d="M25.0921 32.801L33.3844 28.0003L25.0921 23.1996V32.801Z" fill="#FF0000"/>
</g>
<defs>
<clipPath id="clip0_340_183513">
<rect width="56" height="56" rx="28" fill="white"/>
</clipPath>
</defs>
</svg>
