<svg width="40" height="40" viewBox="0 0 40 40" fill="none" xmlns="http://www.w3.org/2000/svg">
<g clip-path="url(#clip0_1989_2406)">
<path d="M20 3C10.6109 3 3 10.6572 3 20.1035C3 28.6398 9.2169 35.7155 17.3446 37V25.0464H13.0266V20.1035H17.3446V16.3356C17.3446 12.0494 19.881 9.68233 23.7655 9.68233C25.6253 9.68233 27.5701 10.0158 27.5701 10.0158V14.2233H25.4281C23.315 14.2233 22.6571 15.542 22.6571 16.8949V20.1035H27.3712L26.6181 25.0464H22.6571V37C30.7831 35.7172 37 28.6381 37 20.1035C37 10.6572 29.3891 3 20 3Z" fill="currentColor"/>
</g>
<defs>
<clipPath id="clip0_1989_2406">
<rect width="40" height="40" fill="currentColor"/>
</clipPath>
</defs>
</svg>
