<svg width="40" height="40" viewBox="0 0 40 40" fill="none" xmlns="http://www.w3.org/2000/svg">
<g clip-path="url(#clip0_1989_2407)">
<path d="M35.905 10.8303C36.6667 13.8003 36.6667 20.0003 36.6667 20.0003C36.6667 20.0003 36.6667 26.2003 35.905 29.1703C35.4817 30.812 34.2433 32.1037 32.675 32.5403C29.8267 33.3337 20 33.3337 20 33.3337C20 33.3337 10.1783 33.3337 7.325 32.5403C5.75 32.097 4.51333 30.807 4.095 29.1703C3.33333 26.2003 3.33333 20.0003 3.33333 20.0003C3.33333 20.0003 3.33333 13.8003 4.095 10.8303C4.51833 9.18866 5.75667 7.89699 7.325 7.46033C10.1783 6.66699 20 6.66699 20 6.66699C20 6.66699 29.8267 6.66699 32.675 7.46033C34.25 7.90366 35.4867 9.19366 35.905 10.8303ZM16.6667 25.8337L26.6667 20.0003L16.6667 14.167V25.8337Z" fill="currentColor"/>
</g>
<defs>
<clipPath id="clip0_1989_2407">
<rect width="40" height="40" fill="currentColor"/>
</clipPath>
</defs>
</svg>
